<svg width="23" height="20" viewBox="0 0 23 20" fill="none" xmlns="http://www.w3.org/2000/svg">
<path id="Vector" d="M1 1L3.26634 1.74862C4.10851 2.02679 4.72961 2.73927 4.88499 3.60537L6.2152 11.0201C6.42069 12.1655 7.42567 13 8.59971 13H17.8274C18.9061 13 19.8548 12.2931 20.1542 11.2661L21.9034 5.2661C22.3507 3.73142 21.1886 2.2 19.5765 2.2H8.26573M9.47668 17.2C9.47668 18.1941 8.66344 19 7.66025 19C6.65706 19 5.84382 18.1941 5.84382 17.2C5.84382 16.2059 6.65706 15.4 7.66025 15.4C8.66344 15.4 9.47668 16.2059 9.47668 17.2ZM19.1643 17.2C19.1643 18.1941 18.351 19 17.3479 19C16.3447 19 15.5315 18.1941 15.5315 17.2C15.5315 16.2059 16.3447 15.4 17.3479 15.4C18.351 15.4 19.1643 16.2059 19.1643 17.2Z" stroke="#3977F1" stroke-width="2" stroke-linecap="round"/>
</svg>
