<svg width="24" height="24" viewBox="0 0 24 24" fill="none" xmlns="http://www.w3.org/2000/svg">
<path id="Vector" d="M12 23.6665C12.5833 23.6665 13.1666 23.4448 13.645 22.9782L22.9783 13.6448C23.9 12.7348 23.9 11.2648 22.9783 10.3548L13.645 1.02151C12.735 0.0998392 11.265 0.0998393 10.355 1.02151L1.02164 10.3548C0.0999707 11.2648 0.0999708 12.7348 1.02164 13.6448L10.355 22.9782C10.8333 23.4448 11.4166 23.6665 12 23.6665ZM12 21.3332L2.66664 11.9998L12 2.6665L21.3333 11.9998M13.1666 17.8332L13.1666 10.8332L10.8333 10.8332L10.8333 17.8332M13.1666 8.49984L13.1666 6.1665L10.8333 6.16651L10.8333 8.49984L13.1666 8.49984Z" fill="#3977F1"/>
</svg>
