<svg width="54" height="54" viewBox="0 0 54 54" fill="none" xmlns="http://www.w3.org/2000/svg">
<g id="simple-line-icons:picture">
<path id="Vector" d="M1 20.6429C1 17.408 3.5868 14.7857 6.77778 14.7857H10.1482C12.4806 14.7857 14.5844 13.364 15.4815 11.1813L16.1296 9.6044C17.0267 7.42176 19.1305 6 21.4629 6H32.5371C34.8696 6 36.9733 7.42176 37.8703 9.6044L38.5186 11.1813C39.4156 13.364 41.5193 14.7857 43.8518 14.7857H47.2222C50.4133 14.7857 53 17.408 53 20.6429V41.1429C53 44.3778 50.4133 47 47.2222 47H6.77778C3.5868 47 1 44.3778 1 41.1429V20.6429Z" stroke="#006ACC" stroke-linecap="round"/>
<path id="Vector_2" d="M36 29.5C36 34.1946 32.1946 38 27.5 38C22.8054 38 19 34.1946 19 29.5C19 24.8054 22.8054 21 27.5 21C32.1946 21 36 24.8054 36 29.5Z" stroke="#006ACC" stroke-linecap="round"/>
</g>
</svg>
