<svg width="24" height="24" viewBox="0 0 24 24" fill="none" xmlns="http://www.w3.org/2000/svg">
<g id="material-symbols:all-out-outline">
<path id="Vector" d="M3 21V16H5V19H8V21H3ZM16 21V19H19V16H21V21H16ZM12 19C10.0667 19 8.41667 18.3167 7.05 16.95C5.68333 15.5833 5 13.9333 5 12C5 10.0667 5.68333 8.41667 7.05 7.05C8.41667 5.68333 10.0667 5 12 5C13.9333 5 15.5833 5.68333 16.95 7.05C18.3167 8.41667 19 10.0667 19 12C19 13.9333 18.3167 15.5833 16.95 16.95C15.5833 18.3167 13.9333 19 12 19ZM12 17C13.3833 17 14.5627 16.5123 15.538 15.537C16.5133 14.5617 17.0007 13.3827 17 12C17 10.6167 16.5123 9.43767 15.537 8.463C14.5617 7.48833 13.3827 7.00067 12 7C10.6167 7 9.43767 7.48767 8.463 8.463C7.48833 9.43833 7.00067 10.6173 7 12C7 13.3833 7.48767 14.5627 8.463 15.538C9.43833 16.5133 10.6173 17.0007 12 17ZM3 8V3H8V5H5V8H3ZM19 8V5H16V3H21V8H19Z" fill="#3977F1"/>
</g>
</svg>
