<svg width="20" height="24" viewBox="0 0 20 24" fill="none" xmlns="http://www.w3.org/2000/svg">
<path id="home_pin" d="M9.71429 20.82C12.1833 18.58 14.0149 16.545 15.2089 14.715C16.403 12.885 17 11.26 17 9.84C17 7.66 16.2967 5.875 14.8902 4.485C13.4836 3.095 11.7583 2.4 9.71429 2.4C7.67024 2.4 5.94494 3.095 4.53839 4.485C3.13185 5.875 2.42857 7.66 2.42857 9.84C2.42857 11.26 3.0256 12.885 4.21964 14.715C5.41369 16.545 7.24524 18.58 9.71429 20.82ZM9.71429 24C6.45595 21.26 4.02232 18.715 2.41339 16.365C0.804464 14.015 0 11.84 0 9.84C0 6.84 0.976488 4.45 2.92946 2.67C4.88244 0.89 7.14405 0 9.71429 0C12.2845 0 14.5461 0.89 16.4991 2.67C18.4521 4.45 19.4286 6.84 19.4286 9.84C19.4286 11.84 18.6241 14.015 17.0152 16.365C15.4062 18.715 12.9726 21.26 9.71429 24ZM6.07143 13.2H8.5V9.9H10.9286V13.2H13.3571V7.5L9.71429 5.1L6.07143 7.5V13.2Z" fill="#3977F1"/>
</svg>
