<svg width="22" height="17" viewBox="0 0 22 17" fill="none" xmlns="http://www.w3.org/2000/svg">
<path d="M19.25 2.25H15.5V0.75H6.125V2.25H2.375C1.84457 2.25 1.33586 2.46071 0.960786 2.83579C0.585714 3.21086 0.375 3.71957 0.375 4.25V14.625C0.375 15.1554 0.585714 15.6641 0.960786 16.0392C1.33586 16.4143 1.84457 16.625 2.375 16.625H19.25C19.7804 16.625 20.2891 16.4143 20.6642 16.0392C21.0393 15.6641 21.25 15.1554 21.25 14.625V4.25C21.25 3.71957 21.0393 3.21086 20.6642 2.83579C20.2891 2.46071 19.7804 2.25 19.25 2.25ZM10.812 15.5C7.47 15.5 4.752 12.78 4.752 9.438C4.752 6.096 7.47 3.376 10.812 3.376C14.154 3.376 16.874 6.096 16.874 9.438C16.874 12.78 14.154 15.498 10.812 15.498V15.5ZM10.812 5.375C10.2784 5.37507 9.74998 5.48024 9.257 5.68451C8.76402 5.88878 8.3161 6.18815 7.93882 6.56553C7.56153 6.9429 7.26227 7.3909 7.05812 7.88393C6.85398 8.37696 6.74893 8.90537 6.749 9.439C6.74907 9.97263 6.85424 10.501 7.05851 10.994C7.26278 11.487 7.56215 11.9349 7.93952 12.3122C8.3169 12.6895 8.7649 12.9887 9.25793 13.1929C9.75096 13.397 10.2794 13.5021 10.813 13.502C11.8908 13.5019 12.9245 13.0736 13.6865 12.3113C14.4486 11.5491 14.8766 10.5153 14.8765 9.4375C14.8764 8.35966 14.4481 7.32602 13.6858 6.56396C12.9236 5.80191 11.8898 5.37387 10.812 5.374V5.375Z" fill="#3977F1"/>
</svg>
