<svg width="32" height="32" viewBox="0 0 32 32" fill="none" xmlns="http://www.w3.org/2000/svg">
<g id="raphael:photo">
<path id="Vector" d="M24.25 10.25H20.5V8.75H11.125V10.25H7.375C6.84457 10.25 6.33586 10.4607 5.96079 10.8358C5.58571 11.2109 5.375 11.7196 5.375 12.25V22.625C5.375 23.1554 5.58571 23.6641 5.96079 24.0392C6.33586 24.4143 6.84457 24.625 7.375 24.625H24.25C24.7804 24.625 25.2891 24.4143 25.6642 24.0392C26.0393 23.6641 26.25 23.1554 26.25 22.625V12.25C26.25 11.7196 26.0393 11.2109 25.6642 10.8358C25.2891 10.4607 24.7804 10.25 24.25 10.25ZM15.812 23.5C12.47 23.5 9.752 20.78 9.752 17.438C9.752 14.096 12.47 11.376 15.812 11.376C19.154 11.376 21.874 14.096 21.874 17.438C21.874 20.78 19.154 23.498 15.812 23.498V23.5ZM15.812 13.375C15.2784 13.3751 14.75 13.4802 14.257 13.6845C13.764 13.8888 13.3161 14.1881 12.9388 14.5655C12.5615 14.9429 12.2623 15.3909 12.0581 15.8839C11.854 16.377 11.7489 16.9054 11.749 17.439C11.7491 17.9726 11.8542 18.501 12.0585 18.994C12.2628 19.487 12.5621 19.9349 12.9395 20.3122C13.3169 20.6895 13.7649 20.9887 14.2579 21.1929C14.751 21.397 15.2794 21.5021 15.813 21.502C16.8908 21.5019 17.9245 21.0736 18.6865 20.3113C19.4486 19.5491 19.8766 18.5153 19.8765 17.4375C19.8764 16.3597 19.4481 15.326 18.6858 14.564C17.9236 13.8019 16.8898 13.3739 15.812 13.374V13.375Z" fill="#3977F1"/>
</g>
</svg>
