<svg width="16" height="16" viewBox="0 0 16 16" fill="none" xmlns="http://www.w3.org/2000/svg">
<path id="Vector" d="M7.10417 0.833252C8.75624 0.833252 10.3407 1.48954 11.5089 2.65773C12.677 3.82593 13.3333 5.41034 13.3333 7.06242C13.3333 8.61492 12.7679 10.0333 11.8288 11.1162L15.7126 15L15 15.6483L11.1483 11.7966C10.0226 12.7627 8.58768 13.2932 7.10417 13.2916C5.45209 13.2916 3.86768 12.6353 2.69948 11.4671C1.53129 10.2989 0.875 8.7145 0.875 7.06242C0.875 5.41034 1.53129 3.82593 2.69948 2.65773C3.86768 1.48954 5.45209 0.833252 7.10417 0.833252ZM7.10417 1.79159C5.70625 1.79159 4.3656 2.3469 3.37712 3.33538C2.38865 4.32385 1.83333 5.66451 1.83333 7.06242C1.83333 8.46033 2.38865 9.80099 3.37712 10.7895C4.3656 11.7779 5.70625 12.3333 7.10417 12.3333C7.79634 12.3333 8.48174 12.1969 9.12123 11.932C9.76072 11.6671 10.3418 11.2789 10.8312 10.7895C11.3207 10.3 11.7089 9.71897 11.9738 9.07948C12.2387 8.43999 12.375 7.75459 12.375 7.06242C12.375 6.37024 12.2387 5.68484 11.9738 5.04536C11.7089 4.40587 11.3207 3.82482 10.8312 3.33538C10.3418 2.84593 9.76072 2.45769 9.12123 2.1928C8.48174 1.92792 7.79634 1.79159 7.10417 1.79159Z" fill="#C0C0C0"/>
</svg>
